<svg xmlns="http://www.w3.org/2000/svg" viewBox="0 0 512 512" fill="none">
  <defs>
    <linearGradient id="bg" x1="64" y1="48" x2="448" y2="464" gradientUnits="userSpaceOnUse">
      <stop stop-color="#1a2027"/>
      <stop offset="1" stop-color="#11161c"/>
    </linearGradient>
    <linearGradient id="glow" x1="96" y1="300" x2="416" y2="380" gradientUnits="userSpaceOnUse">
      <stop stop-color="#14B8A6" stop-opacity="0.55"/>
      <stop offset="0.45" stop-color="#22D3EE" stop-opacity="0.45"/>
      <stop offset="1" stop-color="#8B5CF6" stop-opacity="0.35"/>
    </linearGradient>
    <linearGradient id="strip" x1="112" y1="332" x2="400" y2="332" gradientUnits="userSpaceOnUse">
      <stop stop-color="#14B8A6"/>
      <stop offset="0.35" stop-color="#22D3EE"/>
      <stop offset="0.7" stop-color="#8B5CF6"/>
      <stop offset="1" stop-color="#FF6B6B"/>
    </linearGradient>
    <filter id="softGlow" x="-20%" y="-20%" width="140%" height="140%">
      <feGaussianBlur stdDeviation="10"/>
    </filter>
  </defs>

  <rect x="32" y="32" width="448" height="448" rx="96" fill="url(#bg)"/>
  <rect x="32.5" y="32.5" width="447" height="447" rx="95.5" stroke="#2a3139" stroke-width="1"/>

  <rect x="128" y="118" width="256" height="168" rx="18" fill="#0f1318" stroke="#303842" stroke-width="4"/>
  <rect x="140" y="130" width="232" height="132" rx="10" fill="#070a0d"/>

  <path d="M128 286H384" stroke="url(#glow)" stroke-width="28" stroke-linecap="round" filter="url(#softGlow)"/>
  <path d="M128 286H384" stroke="url(#strip)" stroke-width="10" stroke-linecap="round"/>

  <circle cx="152" cy="286" r="7" fill="#14B8A6"/>
  <circle cx="200" cy="286" r="7" fill="#22D3EE"/>
  <circle cx="256" cy="286" r="7" fill="#8B5CF6"/>
  <circle cx="312" cy="286" r="7" fill="#E879F9"/>
  <circle cx="360" cy="286" r="7" fill="#FF6B6B"/>

  <path d="M196 392H316" stroke="#14B8A6" stroke-width="8" stroke-linecap="round" opacity="0.85"/>
  <path d="M228 392H284" stroke="#22D3EE" stroke-width="8" stroke-linecap="round" opacity="0.65"/>
</svg>
