<svg xmlns="http://www.w3.org/2000/svg" width="164" height="314" viewBox="0 0 164 314" fill="none">
  <defs>
    <linearGradient id="bg" x1="0" y1="0" x2="164" y2="314" gradientUnits="userSpaceOnUse">
      <stop stop-color="#171c22"/>
      <stop offset="1" stop-color="#0b0e12"/>
    </linearGradient>
    <linearGradient id="accent" x1="0" y1="0" x2="0" y2="314" gradientUnits="userSpaceOnUse">
      <stop stop-color="#14B8A6" stop-opacity="0"/>
      <stop offset="0.55" stop-color="#14B8A6" stop-opacity="0.18"/>
      <stop offset="1" stop-color="#8B5CF6" stop-opacity="0.12"/>
    </linearGradient>
    <linearGradient id="strip" x1="18" y1="0" x2="146" y2="0" gradientUnits="userSpaceOnUse">
      <stop stop-color="#14B8A6"/>
      <stop offset="0.35" stop-color="#22D3EE"/>
      <stop offset="0.7" stop-color="#8B5CF6"/>
      <stop offset="1" stop-color="#FF6B6B"/>
    </linearGradient>
    <filter id="glow" x="-30%" y="-30%" width="160%" height="160%">
      <feGaussianBlur stdDeviation="4"/>
    </filter>
  </defs>

  <rect width="164" height="314" fill="url(#bg)"/>
  <rect width="164" height="314" fill="url(#accent)"/>
  <rect x="158" width="6" height="314" fill="#14B8A6" opacity="0.28"/>

  <rect x="44" y="42" width="76" height="76" rx="18" fill="#101419" stroke="#2f3842" stroke-width="1.5"/>
  <rect x="52" y="54" width="60" height="40" rx="6" fill="#070a0d" stroke="#303842" stroke-width="1"/>
  <path d="M44 98H120" stroke="url(#strip)" stroke-width="5" stroke-linecap="round" filter="url(#glow)" opacity="0.55"/>
  <path d="M44 98H120" stroke="url(#strip)" stroke-width="2.5" stroke-linecap="round"/>

  <text x="82" y="152" text-anchor="middle" fill="#eef3f8" font-family="Segoe UI, Arial, sans-serif" font-size="15" font-weight="700">G Skydimo</text>
  <text x="82" y="172" text-anchor="middle" fill="#14B8A6" font-family="Segoe UI, Arial, sans-serif" font-size="11" font-weight="600">Ambilight App</text>
  <text x="82" y="196" text-anchor="middle" fill="#8b949e" font-family="Segoe UI, Arial, sans-serif" font-size="8.5">Screen sync " Colors " Animations</text>

  <rect x="18" y="248" width="128" height="1" fill="#2a3139"/>
  <text x="82" y="266" text-anchor="middle" fill="#6b7280" font-family="Segoe UI, Arial, sans-serif" font-size="7.5">Independent open-source project</text>
  <text x="82" y="280" text-anchor="middle" fill="#6b7280" font-family="Segoe UI, Arial, sans-serif" font-size="7.5">Not affiliated with Skydimo</text>

  <path d="M18 300H146" stroke="url(#strip)" stroke-width="3" stroke-linecap="round"/>
  <circle cx="34" cy="300" r="2.2" fill="#14B8A6"/>
  <circle cx="58" cy="300" r="2.2" fill="#22D3EE"/>
  <circle cx="82" cy="300" r="2.2" fill="#8B5CF6"/>
  <circle cx="106" cy="300" r="2.2" fill="#E879F9"/>
  <circle cx="130" cy="300" r="2.2" fill="#FF6B6B"/>
</svg>
